<svg width="48" height="48" xmlns="http://www.w3.org/2000/svg" xmlns:xlink="http://www.w3.org/1999/xlink" xml:space="preserve" overflow="hidden"><g transform="translate(-279 -441)"><path d="M319.504 467.16 319.728 465.494C321.512 466.581 322.063 467.209 322.223 467.474 321.75 467.617 320.795 467.491 319.504 467.16L319.504 467.16ZM301.802 461.111C301.802 461.058 301.845 461.015 301.898 461.015 301.913 461.015 301.924 461.025 301.937 461.032L301.864 461.179C301.831 461.169 301.802 461.149 301.802 461.111L301.802 461.111ZM315.514 481.798C315.508 481.843 315.505 481.887 315.505 481.931 315.505 482.086 315.126 482.675 313.441 483.34 312.69 483.637 311.803 483.903 310.803 484.133 308.228 484.729 305.064 485.057 301.896 485.057 293.43 485.057 288.289 482.887 288.289 481.931 288.289 481.887 288.286 481.843 288.28 481.798L284.441 453.285C284.688 453.429 284.953 453.566 285.231 453.7 285.31 453.738 285.396 453.774 285.478 453.812 285.718 453.923 285.967 454.03 286.227 454.134 286.339 454.178 286.452 454.222 286.567 454.265 286.843 454.369 287.128 454.469 287.423 454.565 287.51 454.594 287.593 454.624 287.681 454.651 288.06 454.77 288.453 454.884 288.858 454.991 288.971 455.021 289.088 455.05 289.203 455.078 289.515 455.158 289.833 455.234 290.158 455.306 290.299 455.338 290.439 455.369 290.581 455.398 290.946 455.475 291.319 455.549 291.698 455.618 291.78 455.633 291.859 455.649 291.942 455.664 292.4 455.744 292.869 455.818 293.345 455.888 293.479 455.907 293.615 455.924 293.751 455.942 294.111 455.992 294.476 456.038 294.844 456.081 294.994 456.098 295.145 456.116 295.297 456.133 295.741 456.18 296.189 456.223 296.64 456.262 296.693 456.266 296.747 456.272 296.802 456.276 297.306 456.317 297.813 456.35 298.321 456.38 298.466 456.388 298.611 456.394 298.757 456.401 299.141 456.42 299.525 456.435 299.909 456.448 300.06 456.453 300.209 456.458 300.359 456.462 300.872 456.473 301.385 456.482 301.896 456.482 302.406 456.482 302.919 456.473 303.432 456.462 303.582 456.458 303.733 456.453 303.883 456.448 304.268 456.435 304.651 456.42 305.034 456.401 305.181 456.394 305.326 456.388 305.472 456.38 305.981 456.35 306.487 456.317 306.99 456.276 307.046 456.271 307.101 456.265 307.156 456.262 307.607 456.223 308.052 456.18 308.494 456.133 308.648 456.116 308.799 456.098 308.951 456.081 309.317 456.038 309.681 455.992 310.04 455.943 310.177 455.925 310.315 455.907 310.45 455.887 310.925 455.818 311.393 455.744 311.852 455.664 311.935 455.649 312.016 455.633 312.099 455.617 312.477 455.549 312.848 455.475 313.213 455.398 313.356 455.369 313.495 455.338 313.636 455.306 313.961 455.233 314.279 455.157 314.592 455.078 314.706 455.049 314.823 455.021 314.936 454.992 315.342 454.884 315.735 454.77 316.114 454.651 316.201 454.624 316.283 454.595 316.368 454.566 316.665 454.47 316.952 454.369 317.23 454.264 317.343 454.222 317.455 454.179 317.566 454.135 317.828 454.03 318.079 453.922 318.322 453.81 318.401 453.773 318.485 453.738 318.563 453.701 318.841 453.567 319.107 453.429 319.354 453.285L317.562 466.591C313.925 465.424 308.817 463.307 303.982 461.008 303.927 459.901 303.018 459.015 301.898 459.015 300.742 459.015 299.802 459.956 299.802 461.111 299.802 462.266 300.742 463.206 301.898 463.206 302.352 463.206 302.77 463.057 303.113 462.81 307.445 464.889 312.976 467.342 317.293 468.588L315.514 481.798ZM301.896 445C312.315 445 319.656 448.228 319.792 450.021L319.766 450.229C319.748 450.291 319.709 450.354 319.676 450.418 319.649 450.47 319.629 450.52 319.592 450.573 319.548 450.635 319.483 450.698 319.426 450.761 319.375 450.816 319.332 450.871 319.271 450.927 319.203 450.988 319.116 451.051 319.035 451.113 318.96 451.171 318.894 451.228 318.808 451.287 318.717 451.347 318.608 451.409 318.506 451.471 318.407 451.53 318.316 451.59 318.205 451.649 318.095 451.709 317.966 451.767 317.845 451.827 317.721 451.888 317.605 451.948 317.469 452.009 317.34 452.066 317.193 452.123 317.055 452.18 316.905 452.24 316.764 452.302 316.604 452.361 316.456 452.417 316.29 452.471 316.133 452.525 315.962 452.584 315.798 452.644 315.616 452.702 315.447 452.756 315.261 452.806 315.082 452.859 314.892 452.915 314.709 452.972 314.509 453.026 314.317 453.078 314.11 453.126 313.91 453.176 313.703 453.227 313.503 453.28 313.286 453.33 313.07 453.379 312.838 453.424 312.612 453.471 312.394 453.516 312.182 453.564 311.954 453.607 311.714 453.653 311.457 453.694 311.207 453.737 310.977 453.776 310.754 453.818 310.515 453.855 310.255 453.895 309.979 453.931 309.709 453.968 309.465 454.001 309.227 454.038 308.975 454.068 308.682 454.104 308.373 454.134 308.07 454.165 307.826 454.191 307.59 454.22 307.34 454.242 307.004 454.273 306.652 454.296 306.306 454.32 306.073 454.338 305.848 454.358 305.61 454.373 305.231 454.395 304.834 454.409 304.441 454.426 304.225 454.434 304.015 454.447 303.794 454.454 303.175 454.472 302.542 454.482 301.896 454.482 301.25 454.482 300.617 454.472 299.997 454.454 299.775 454.447 299.563 454.433 299.343 454.425 298.953 454.409 298.56 454.395 298.182 454.373 297.932 454.357 297.694 454.336 297.449 454.318 297.116 454.294 296.776 454.272 296.453 454.242 296.202 454.22 295.966 454.19 295.721 454.165 295.418 454.134 295.109 454.104 294.817 454.068 294.567 454.038 294.33 454.002 294.087 453.968 293.817 453.931 293.539 453.896 293.278 453.855 293.03 453.817 292.798 453.773 292.559 453.732 292.318 453.69 292.071 453.651 291.84 453.607 291.608 453.563 291.393 453.515 291.169 453.469 290.947 453.422 290.719 453.378 290.506 453.329 290.29 453.28 290.091 453.227 289.884 453.176 289.684 453.126 289.476 453.078 289.285 453.026 289.082 452.972 288.897 452.914 288.704 452.857 288.528 452.806 288.345 452.755 288.178 452.702 287.993 452.643 287.827 452.583 287.654 452.522 287.499 452.469 287.336 452.416 287.191 452.361 287.029 452.302 286.888 452.239 286.738 452.179 286.6 452.122 286.453 452.065 286.325 452.009 286.191 451.948 286.074 451.888 285.95 451.827 285.829 451.767 285.699 451.709 285.589 451.648 285.479 451.589 285.387 451.529 285.287 451.469 285.186 451.408 285.077 451.347 284.987 451.287 284.9 451.227 284.832 451.169 284.756 451.11 284.677 451.049 284.591 450.987 284.525 450.927 284.462 450.87 284.418 450.813 284.366 450.758 284.31 450.696 284.247 450.634 284.203 450.573 284.165 450.519 284.146 450.467 284.118 450.413 284.086 450.351 284.047 450.289 284.03 450.229L284.002 450.02C284.141 448.227 291.48 445 301.896 445L301.896 445ZM324.255 467.257C324.042 466.107 322.717 464.889 320.018 463.347L321.734 450.595 321.734 450.591 321.734 450.59 321.785 450.2C321.791 450.157 321.794 450.114 321.794 450.071 321.794 445.904 311.308 443 301.896 443 292.485 443 282 445.904 282 450.071 282 450.115 282.003 450.159 282.009 450.203L282.061 450.593 282.061 450.595 286.29 482.009C286.421 485.685 295.903 487.057 301.896 487.057 305.211 487.057 308.534 486.711 311.253 486.082 312.348 485.83 313.331 485.533 314.175 485.2 316.341 484.345 317.46 483.271 317.504 482.009L319.245 469.08C320.197 469.282 321.062 469.405 321.781 469.405 322.75 469.405 323.475 469.2 323.867 468.732 324.217 468.316 324.355 467.792 324.255 467.257L324.255 467.257Z" fill="#7AA116" fill-rule="evenodd"/></g></svg>