<svg width="80" height="80" xmlns="http://www.w3.org/2000/svg" xmlns:xlink="http://www.w3.org/1999/xlink" xml:space="preserve" overflow="hidden"><g transform="translate(-314 -124)"><path d="M314 124 394 124 394 204 314 204Z" fill="#7AA116" fill-rule="evenodd"/><path d="M380 182 382 182 382 192 372 192 372 190 378.586 190 370.293 181.707 371.707 180.293 380 188.586 380 182ZM337.707 181.707 329.414 190 336 190 336 192 326 192 326 182 328 182 328 188.586 336.293 180.293 337.707 181.707ZM382 136 382 146 380 146 380 139.414 371.707 147.707 370.293 146.293 378.586 138 372 138 372 136 382 136ZM329.414 138 337.707 146.293 336.293 147.707 328 139.414 328 146 326 146 326 136 336 136 336 138 329.414 138ZM364.678 177.661C363.521 178.848 359.635 180.046 353.563 180.046 346.168 180.046 342.031 178.23 342 177L342 153.857C344.603 155.395 349.32 156 353.563 156 357.756 156 362.418 155.397 365 153.867L365 177.025C365.002 177.099 365.008 177.323 364.678 177.661L364.678 177.661ZM353.563 148C359.663 148 363.545 149.181 364.686 150.352 365.008 150.682 365.002 150.902 365 150.975L365 151C365 152.226 360.927 154 353.563 154 346.422 154 342.032 152.265 342.003 151.013 342.061 149.746 346.093 148 353.563 148L353.563 148ZM366.999 151C367.007 150.482 366.858 149.716 366.118 148.956 364.313 147.105 359.62 146 353.563 146 347.365 146 340.094 147.303 340 151L340 177.025C340.095 180.731 347.365 182.046 353.563 182.046 358.22 182.046 363.962 181.261 366.11 179.057 366.869 178.278 367.013 177.495 367 177L367 151.011 367 151.004 367 151 366.999 151Z" fill="#FFFFFF" fill-rule="evenodd"/></g></svg>