<svg width="80" height="80" xmlns="http://www.w3.org/2000/svg" xmlns:xlink="http://www.w3.org/1999/xlink" xml:space="preserve" overflow="hidden"><g transform="translate(-314 -124)"><path d="M314 124 394 124 394 204 314 204Z" fill="#7AA116" fill-rule="evenodd"/><path d="M345.378 148.024C351.642 145.404 356.078 148.85 357.694 150.452 359.012 151.762 360.04 153.434 360.75 155.42 360.873 155.766 361.178 156.017 361.541 156.072 361.909 156.123 362.27 155.979 362.49 155.685 363.278 154.637 364.432 154.036 365.653 154.036 367.478 154.036 369.69 155.421 369.919 159.324 369.945 159.775 370.27 160.151 370.712 160.244 375.245 161.196 377.544 163.711 377.544 167.716 377.544 171.438 375.84 173.738 372.481 174.553L372.951 176.496C377.203 175.466 379.544 172.348 379.544 167.716 379.544 163.001 376.818 159.735 371.848 158.456 371.306 154.028 368.409 152.036 365.653 152.036 364.336 152.036 363.08 152.484 362.044 153.301 361.283 151.651 360.298 150.221 359.104 149.033 355.14 145.107 349.723 144.04 344.605 146.179 340.23 148.015 336.929 153.077 336.929 157.955 336.929 158.195 336.937 158.442 336.952 158.697 332.935 160.019 330.564 163.312 330.564 167.658 330.564 167.877 330.574 168.095 330.586 168.307 330.793 172.065 333.303 175.315 336.981 176.585L337.633 174.694C334.728 173.691 332.745 171.14 332.583 168.201 332.574 168.025 332.564 167.842 332.564 167.658 332.564 162.575 336.137 160.928 338.266 160.399 338.755 160.277 339.077 159.81 339.018 159.309 338.958 158.814 338.929 158.371 338.929 157.955 338.929 153.903 341.763 149.542 345.378 148.024L345.378 148.024ZM365.982 169.001C365.982 168.604 365.897 168.305 365.741 168.159 365.57 168 365.272 167.985 365.049 167.999L351.982 168.001C351.43 168.001 350.982 167.553 350.982 167.001 350.982 166.73 350.881 165.971 350.765 165.5L347.306 165.5C347.153 165.96 346.989 166.741 346.982 167.005 346.968 167.547 346.524 168.001 345.982 168.001L342.982 168.001C342.689 167.982 342.393 168 342.224 168.159 342.068 168.305 341.982 168.604 341.982 169.001L341.982 183.002 365.982 183.002 365.982 169.001ZM367.982 171.001 367.982 178.229 370.564 171.001 367.982 171.001ZM367.924 184.339 367.915 184.336C367.777 184.722 367.417 185.002 366.982 185.002L340.982 185.002C340.43 185.002 339.982 184.554 339.982 184.002L339.982 169.001C339.982 167.775 340.458 167.072 340.857 166.698 341.24 166.34 341.919 165.921 343.049 166.004L345.099 166.002C345.277 164.967 345.721 163.5 346.79 163.5L351.342 163.5C351.403 163.5 351.465 163.506 351.526 163.517 352.467 163.693 352.8 165.028 352.918 166.001L364.982 166.001C366.039 165.928 366.724 166.34 367.107 166.698 367.507 167.072 367.982 167.775 367.982 169.001L371.982 169.001C372.308 169.001 372.612 169.159 372.8 169.425 372.987 169.691 373.033 170.031 372.924 170.337L367.924 184.339ZM379.982 188.587 372.376 180.981 370.962 182.395 378.567 190 373.064 190 373.064 192 380.982 192C381.535 192 381.982 191.552 381.982 191L381.982 183.082 379.982 183.082 379.982 188.587ZM336.624 180.946 327.982 188.749 327.982 183.082 325.982 183.082 325.982 191C325.982 191.552 326.43 192 326.982 192L335.901 192 335.901 190 329.581 190 337.964 182.43 336.624 180.946ZM380.982 136 372.064 136 372.064 138 378.731 138 370.927 146.642 372.411 147.982 379.982 139.599 379.982 145.919 381.982 145.919 381.982 137C381.982 136.448 381.535 136 380.982 136L380.982 136ZM327.982 145.919 325.982 145.919 325.982 137C325.982 136.448 326.43 136 326.982 136L335.901 136 335.901 138 329.396 138 338.001 146.605 336.587 148.019 327.982 139.415 327.982 145.919Z" fill="#FFFFFF" fill-rule="evenodd"/></g></svg>