<svg width="48" height="48" xmlns="http://www.w3.org/2000/svg" xmlns:xlink="http://www.w3.org/1999/xlink" xml:space="preserve" overflow="hidden"><g transform="translate(-511 -300)"><path d="M554.62 324.058 554.62 323.794 554.742 323.926 554.62 324.058ZM521.926 330.852C518.106 330.852 515 327.746 515 323.926 515 320.107 518.106 317 521.926 317 525.745 317 528.851 320.107 528.851 323.926 528.851 327.746 525.745 330.852 521.926 330.852L521.926 330.852ZM556.839 323.246 550.398 316.31 548.933 317.671 553.813 322.926 530.792 322.926C530.293 318.474 526.51 315 521.926 315 517.004 315 513 319.004 513 323.926 513 328.848 517.004 332.852 521.926 332.852 526.51 332.852 530.293 329.378 530.792 324.926L553.813 324.926 548.933 330.181 550.398 331.542 556.839 324.607C557.195 324.223 557.195 323.629 556.839 323.246L556.839 323.246Z" fill="#ED7100" fill-rule="evenodd"/></g></svg>