<svg width="48" height="48" xmlns="http://www.w3.org/2000/svg" xmlns:xlink="http://www.w3.org/1999/xlink" xml:space="preserve" overflow="hidden"><g transform="translate(-459 -294)"><path d="M492.431 329.178 490.933 329.178 490.933 311.502C490.933 311.109 490.702 310.752 490.344 310.591L490.252 310.549C488.243 309.642 486.164 308.703 483.176 308.703 480.053 308.703 477.761 309.712 475.495 310.837 475.155 311.006 474.94 311.353 474.94 311.733L474.94 329.178 473.477 329.178 473.477 310.312C475.911 308.333 479.42 307.205 483.186 307.205 486.687 307.205 490.025 308.202 492.431 309.953L492.431 329.178ZM483.186 305.205C478.761 305.205 474.617 306.624 471.815 309.1 471.6 309.289 471.477 309.562 471.477 309.849L471.477 330.178C471.477 330.731 471.924 331.178 472.477 331.178L475.94 331.178C476.493 331.178 476.94 330.731 476.94 330.178L476.94 312.356C478.859 311.429 480.719 310.703 483.176 310.703 485.511 310.703 487.209 311.378 488.933 312.149L488.933 330.178C488.933 330.731 489.38 331.178 489.933 331.178L493.431 331.178C493.984 331.178 494.431 330.731 494.431 330.178L494.431 309.458C494.431 309.154 494.292 308.866 494.053 308.675 491.279 306.47 487.318 305.205 483.186 305.205L483.186 305.205ZM482.954 337.909C471.952 337.909 462.999 328.957 462.999 317.954 462.999 306.951 471.952 298 482.954 298 493.957 298 502.909 306.951 502.909 317.954 502.909 328.957 493.957 337.909 482.954 337.909L482.954 337.909ZM482.954 296C470.848 296 460.999 305.849 460.999 317.954 460.999 330.061 470.848 339.909 482.954 339.909 495.06 339.909 504.909 330.061 504.909 317.954 504.909 305.849 495.06 296 482.954 296L482.954 296Z" fill="#8C4FFF" fill-rule="evenodd"/></g></svg>